# xmcd
# 
# Track frame offsets:
#     150
#     9311
#     20797
#     33310
#     45579
#     54835
#     68215
#     78358
#     89386
#     105619
#     116910
#     126090
#     135300
#     147021
#     157691
#     168027
#     178917
#     189898
# 
# Disc length: 2638
# 
# Revision: 1
# Processed by: cddbd v1.5.2PL0 Copyright (c) Steve Scherf et al.
# Submitted via: fre:ac v1.0.31
# 
DISCID=db0a4c12
DTITLE=Buck Owens - The Complete Capitol Singles 1967-1970 Disc 1
DYEAR=2018
DGENRE=Country
TTITLE0=Sam's Place
TTITLE1=Don't Ever Tell Me Goodbye
TTITLE2=Your Tender Loving Care
TTITLE3=What A Liar I Am
TTITLE4=It Takes People Like You (To Make People Like Me)
TTITLE5=You Left Her Lonely Too Long
TTITLE6=How Long Will My Baby Be Gone
TTITLE7=Everybody Needs Somebody
TTITLE8=Sweet Rosie Jones
TTITLE9=Happy Times Are Here Again
TTITLE10=Let The World Keep On A Turnin' (Buck Owens and Buddy Alan)
TTITLE11=I'll Love You Forever And Ever (Buck Owens and Buddy Alan)
TTITLE12=I've Got You On My Mind Again
TTITLE13=That's All Right With Me (If It's All Right With You)
TTITLE14=Christmas Shopping
TTITLE15=One Of Everything You Got
TTITLE16=Things I Saw Happening At The Fountain On The Plaza When I Was Visiting Rome Or Amore
TTITLE17=Turkish Holiday
EXTD=
EXTT0=
EXTT1=
EXTT2=
EXTT3=
EXTT4=
EXTT5=
EXTT6=
EXTT7=
EXTT8=
EXTT9=
EXTT10=
EXTT11=
EXTT12=
EXTT13=
EXTT14=
EXTT15=
EXTT16=
EXTT17=
PLAYORDER=
